<svg version="1.1" id="logo-elements" xmlns="http://www.w3.org/2000/svg" xmlns:xlink="http://www.w3.org/1999/xlink" x="0px"
	 y="0px" viewBox="0 0 214.6 137" style="enable-background:new 0 0 214.6 137;" xml:space="preserve">
<style type="text/css">
	.st0{fill:#231F20;}
	.st1{fill:url(#SVGID_1_);}
	.st2{clip-path:url(#SVGID_3_);}
	.st3{fill:url(#SVGID_4_);}
	.st4{clip-path:url(#SVGID_6_);}
	.st5{fill:url(#SVGID_7_);}
	.st6{clip-path:url(#SVGID_9_);}
	.st7{fill:url(#SVGID_10_);}
	.st8{fill:#1D1D1B;}
</style>
<path class="st0" d="M209,89c3.6,3.7,3.6,9.6,0,13.3c-3.5,3.6-9.2,3.6-12.7,0.2c-0.1-0.1-0.1-0.1-0.2-0.2c-3.6-3.7-3.6-9.6,0-13.3
	c3.5-3.6,9.2-3.6,12.7-0.2C208.9,88.9,208.9,88.9,209,89 M202.5,83.7c-3.2-0.1-6.3,1.2-8.6,3.5c-4.6,4.6-4.7,12-0.1,16.7l0.1,0.1
	c4.8,4.7,12.4,4.7,17.2,0c4.6-4.6,4.7-12,0.1-16.7l-0.1-0.1C208.8,84.9,205.7,83.6,202.5,83.7 M176.9,84l-6,8.6V84H168v23.3h2.9
	v-9.8l1.5-2.2l8.4,12h3.4l-10-14.4l6.1-8.9H176.9z M144.7,84v23.3h12.6v-2.5h-9.7V97h9.7v-2.5h-9.7v-7.8h9.7V84H144.7z M131.2,92.7
	c1-0.9,1.5-2.2,1.5-3.6s-0.5-2.7-1.5-3.6c-1-1-2.4-1.6-3.8-1.5H120v23.3h8c1.8-0.2,3.5-1,4.8-2.3c1.5-1.4,2.4-3.4,2.4-5.5
	s-0.8-4-2.3-5.4C132.4,93.5,131.8,93,131.2,92.7 M127.3,86.5c0.6,0,1.2,0.3,1.7,0.7c0.5,0.5,0.8,1.2,0.7,1.9c0,0.7-0.3,1.4-0.8,1.9
	c-0.4,0.4-0.9,0.6-1.5,0.6h-4.7v-5.1H127.3z M122.9,104.7V94.2h4.2c1.3,0,2.6,0.5,3.5,1.5c2,2.1,2,5.4,0,7.5c-0.9,1-2.2,1.5-3.5,1.5
	H122.9z M106.6,84l-7.4,9.8L91.7,84h-3.1v23.3h2.9V88.4l7.7,10l7.6-10v18.9h2.9V84H106.6z M65.6,84v23.3h12.7v-2.5h-9.7V97h9.7v-2.5
	h-9.7v-7.8h9.7V84H65.6z M56.3,86.5V84h-14v2.5h5.6v20.7h2.9V86.6L56.3,86.5z M14,84v23.3h2.9V89.2l12.9,18.1H33V84h-2.9v18.6
	L16.9,84H14z M0.4,107.3h2.9V84H0.4V107.3z"/>
<radialGradient id="SVGID_1_" cx="-1280.3335" cy="124.1056" r="0.9982" gradientTransform="matrix(107.1 0 0 107.1 137231.2188 -13173.0918)" gradientUnits="userSpaceOnUse">
	<stop  offset="0" style="stop-color:#F6A76C"/>
	<stop  offset="0.4" style="stop-color:#F4A56B"/>
	<stop  offset="0.58" style="stop-color:#EDA068"/>
	<stop  offset="0.71" style="stop-color:#E09762"/>
	<stop  offset="0.82" style="stop-color:#CE8A5A"/>
	<stop  offset="0.91" style="stop-color:#B77950"/>
	<stop  offset="0.99" style="stop-color:#9B6443"/>
	<stop  offset="1" style="stop-color:#996242"/>
</radialGradient>
<polyline class="st1" points="0.4,117 214.6,117 214.6,119 0.4,119 "/>
<g>
	<g>
		<g>
			<defs>
				<path id="SVGID_2_" d="M98,32.9c0-5.2,4.2-9.5,9.5-9.5c5.2,0,9.5,4.2,9.5,9.5c0,5.2-4.2,9.5-9.5,9.5l0,0
					C102.3,42.4,98,38.1,98,32.9 M94.2,32.9c0,7.4,6,13.3,13.3,13.3s13.3-6,13.3-13.3s-6-13.3-13.3-13.3l0,0
					C100.1,19.6,94.2,25.5,94.2,32.9"/>
			</defs>
			<clipPath id="SVGID_3_">
				<use xlink:href="#SVGID_2_"  style="overflow:visible;"/>
			</clipPath>
			<g class="st2">
				
					<linearGradient id="SVGID_4_" gradientUnits="userSpaceOnUse" x1="-1252.7917" y1="145.4818" x2="-1251.7917" y2="145.4818" gradientTransform="matrix(26.63 0 0 26.63 33456.3086 -3841.3799)">
					<stop  offset="0" style="stop-color:#996242"/>
					<stop  offset="0.19" style="stop-color:#BA7B51"/>
					<stop  offset="0.38" style="stop-color:#D48E5D"/>
					<stop  offset="0.58" style="stop-color:#E79C65"/>
					<stop  offset="0.78" style="stop-color:#F2A46A"/>
					<stop  offset="1" style="stop-color:#F6A76C"/>
				</linearGradient>
				<rect x="94.2" y="19.5" class="st3" width="26.6" height="26.6"/>
			</g>
		</g>
	</g>
</g>
<g>
	<g>
		<defs>
			<path id="SVGID_5_" d="M96.6,61.9H78.3V38.7L96.6,61.9z M78.3,3.8h18.2L78.3,26.5V3.8z M74.4,37.4h-18V3.8h18V37.4z M74.4,61.9
				h-18V41.2h18V61.9z M104.6,0h-52v65.7h52L78.4,32.5L104.6,0z"/>
		</defs>
		<clipPath id="SVGID_6_">
			<use xlink:href="#SVGID_5_"  style="overflow:visible;"/>
		</clipPath>
		<g class="st4">
			
				<linearGradient id="SVGID_7_" gradientUnits="userSpaceOnUse" x1="-1270.678" y1="131.1646" x2="-1269.6783" y2="131.1646" gradientTransform="matrix(52.02 0 0 52.02 66152.7344 -6790.3296)">
				<stop  offset="0" style="stop-color:#996242"/>
				<stop  offset="0.19" style="stop-color:#BA7B51"/>
				<stop  offset="0.38" style="stop-color:#D48E5D"/>
				<stop  offset="0.58" style="stop-color:#E79C65"/>
				<stop  offset="0.78" style="stop-color:#F2A46A"/>
				<stop  offset="1" style="stop-color:#F6A76C"/>
			</linearGradient>
			<rect x="52.5" class="st5" width="52" height="65.7"/>
		</g>
	</g>
</g>
<g>
	<g>
		<defs>
			<path id="SVGID_8_" d="M158.6,15.7h-18V3.8h18V15.7z M158.6,61.9h-18V19.5h18V61.9z M136.6,26.5L118.4,3.8h18.2V26.5z
				 M136.6,61.9h-18.3l18.3-23.2V61.9z M136.8,0h-26.3l26.2,32.5l-26.1,33.2h52V0H136.8z"/>
		</defs>
		<clipPath id="SVGID_9_">
			<use xlink:href="#SVGID_8_"  style="overflow:visible;"/>
		</clipPath>
		<g class="st6">
			
				<linearGradient id="SVGID_10_" gradientUnits="userSpaceOnUse" x1="-1270.678" y1="131.1644" x2="-1269.6783" y2="131.1644" gradientTransform="matrix(52.02 0 0 52.02 66210.6328 -6790.3198)">
				<stop  offset="0" style="stop-color:#996242"/>
				<stop  offset="0.19" style="stop-color:#BA7B51"/>
				<stop  offset="0.38" style="stop-color:#D48E5D"/>
				<stop  offset="0.58" style="stop-color:#E79C65"/>
				<stop  offset="0.78" style="stop-color:#F2A46A"/>
				<stop  offset="1" style="stop-color:#F6A76C"/>
			</linearGradient>
			<rect x="110.4" class="st7" width="52" height="65.7"/>
		</g>
	</g>
</g>
<path class="st8" d="M213.1,133.5c0.3,0.3,0.5,0.7,0.5,1.2s-0.2,0.9-0.5,1.2c-0.3,0.3-0.7,0.5-1.1,0.5c-0.4,0-0.8-0.2-1.1-0.5
	c-0.3-0.3-0.5-0.7-0.5-1.4l-1,0.4c0.1,0.6,0.3,1.2,0.8,1.6c0.5,0.5,1.2,0.8,1.9,0.8c0.8,0,1.4-0.3,1.9-0.8c0.5-0.5,0.8-1.1,0.8-1.8
	s-0.3-1.3-0.8-1.8c-0.5-0.5-1-0.8-1.7-1c-0.4-0.2-0.6-0.3-0.8-0.5c-0.2-0.2-0.3-0.5-0.3-0.7c0-0.3,0.1-0.5,0.3-0.7
	c0.2-0.2,0.4-0.3,0.7-0.3c0.2,0,0.5,0.1,0.7,0.3c0.1,0.1,0.2,0.3,0.3,0.6l1-0.4c-0.1-0.4-0.3-0.7-0.5-0.9c-0.4-0.4-0.9-0.6-1.4-0.6
	c-0.6,0-1,0.2-1.4,0.6c-0.4,0.4-0.6,0.8-0.6,1.4c0,0.5,0.2,1,0.6,1.3c0.4,0.4,0.9,0.7,1.5,0.9C212.4,133,212.7,133.2,213.1,133.5
	 M204.7,137.2h1.2l-1.9-3c0.3-0.1,0.6-0.3,1-0.7c0.6-0.6,0.9-1.2,0.9-2c0-0.8-0.3-1.4-0.8-2c-0.5-0.5-1.1-0.8-1.8-0.9h-2.4v8.5h1.1
	v-2.8h1L204.7,137.2z M203,129.7c0.5,0,0.9,0.2,1.3,0.6c0.4,0.4,0.6,0.8,0.6,1.4c0,0.6-0.2,1-0.6,1.4c-0.4,0.4-0.8,0.6-1.3,0.6h-1.1
	v-3.9H203z M195.2,130.5c0.7,0.7,1,1.5,1,2.4c0,1-0.3,1.8-1,2.4c-0.7,0.7-1.4,1-2.4,1c-0.9,0-1.7-0.3-2.4-1c-0.7-0.7-1-1.5-1-2.4
	c0-1,0.3-1.8,1-2.4c0.7-0.7,1.4-1,2.4-1C193.8,129.6,194.6,129.9,195.2,130.5 M192.9,128.6c-1.2,0-2.3,0.4-3.1,1.3
	c-0.9,0.9-1.3,1.9-1.3,3.1c0,1.2,0.4,2.2,1.3,3.1c0.9,0.9,1.9,1.3,3.1,1.3c1.2,0,2.3-0.4,3.1-1.3c0.9-0.9,1.3-1.9,1.3-3.1
	c0-1.2-0.4-2.2-1.3-3.1C195.2,129,194.1,128.6,192.9,128.6 M185.8,129.7v-0.9h-5.1v0.9h2v7.6h1.1v-7.6H185.8z M174.3,128.7l-3.1,8.5
	h1.1l1.3-3.5h2.3l1.3,3.5h1.1l-3.1-8.5H174.3z M174,132.8l0.8-2.3l0.8,2.3H174z M167,137.2h1.2l-1.9-3c0.3-0.1,0.6-0.3,1-0.7
	c0.6-0.6,0.9-1.2,0.9-2c0-0.8-0.3-1.4-0.8-2c-0.5-0.5-1.1-0.8-1.8-0.9h-2.4v8.5h1.1v-2.8h1L167,137.2z M165.3,129.7
	c0.5,0,0.9,0.2,1.3,0.6c0.4,0.4,0.6,0.8,0.6,1.4c0,0.6-0.2,1-0.6,1.4c-0.4,0.4-0.8,0.6-1.3,0.6h-1.1v-3.9H165.3z M159.8,129.7v-0.9
	h-5.1v0.9h2v7.6h1.1v-7.6H159.8z M150.1,133.5c0.3,0.3,0.5,0.7,0.5,1.2s-0.2,0.9-0.5,1.2c-0.3,0.3-0.7,0.5-1.1,0.5
	c-0.4,0-0.8-0.2-1.1-0.5c-0.3-0.3-0.5-0.7-0.5-1.4l-1,0.4c0.1,0.6,0.3,1.2,0.8,1.6c0.5,0.5,1.2,0.8,1.9,0.8c0.8,0,1.4-0.3,1.9-0.8
	c0.5-0.5,0.8-1.1,0.8-1.8s-0.3-1.3-0.8-1.8c-0.5-0.5-1-0.8-1.7-1c-0.4-0.2-0.6-0.3-0.8-0.5c-0.2-0.2-0.3-0.5-0.3-0.7
	c0-0.3,0.1-0.5,0.3-0.7s0.4-0.3,0.7-0.3c0.2,0,0.5,0.1,0.7,0.3c0.1,0.1,0.2,0.3,0.3,0.6l1-0.4c-0.1-0.4-0.3-0.7-0.5-0.9
	c-0.4-0.4-0.9-0.6-1.4-0.6c-0.6,0-1,0.2-1.4,0.6c-0.4,0.4-0.6,0.8-0.6,1.4c0,0.5,0.2,1,0.6,1.3c0.4,0.4,0.9,0.7,1.5,0.9
	C149.4,133,149.7,133.2,150.1,133.5 M141.6,137.2h1.1v-8.5h-1.1V137.2z M130.7,128.7v8.5h1.1v-6.6l4.7,6.6h1.2v-8.5h-1.1v6.8
	l-4.8-6.8H130.7z M125.7,137.2h1.1v-8.5h-1.1V137.2z M120.7,128.7l-2.7,3.6l-2.7-3.6h-1.1v8.5h1.1v-6.9l2.8,3.7l2.8-3.7v6.9h1.1
	v-8.5H120.7z M106.1,129.7c1.1,0,1.9,0.3,2.5,0.9c0.7,0.7,1,1.5,1,2.4c0,1-0.3,1.8-1,2.4c-0.6,0.6-1.4,0.9-2.5,0.9h-0.7v-6.6H106.1z
	 M104.3,128.7v8.5h1.8c1.4,0,2.5-0.4,3.3-1.2c0.9-0.9,1.3-1.9,1.3-3.1c0-1.2-0.4-2.2-1.3-3.1c-0.8-0.8-1.9-1.2-3.3-1.2H104.3z
	 M97.1,128.7l-3.1,8.5h1.1l1.3-3.5h2.3l1.3,3.5h1.1l-3.1-8.5H97.1z M96.7,132.8l0.8-2.3l0.8,2.3H96.7z M85.7,129.7v-0.9h-5.1v0.9h2
	v7.6h1.1v-7.6H85.7z M70.2,128.7v8.5h1.1v-6.6l4.7,6.6h1.2v-8.5h-1.1v6.8l-4.8-6.8H70.2z M61.7,128.7v8.5h4.6v-0.9h-3.6v-2.9h3.6
	v-0.9h-3.6v-2.9h3.6v-0.9H61.7z M56.8,128.7l-2.7,3.6l-2.7-3.6h-1.1v8.5h1.1v-6.9l2.8,3.7l2.8-3.7v6.9h1.1v-8.5H56.8z M46.9,129.7
	v-0.9h-5.1v0.9h2v7.6h1.1v-7.6H46.9z M37.2,133.5c0.3,0.3,0.5,0.7,0.5,1.2s-0.2,0.9-0.5,1.2c-0.3,0.3-0.7,0.5-1.1,0.5
	c-0.4,0-0.8-0.2-1.1-0.5c-0.3-0.3-0.5-0.7-0.5-1.4l-1,0.4c0.1,0.6,0.3,1.2,0.8,1.6c0.5,0.5,1.2,0.8,1.9,0.8c0.8,0,1.4-0.3,1.9-0.8
	c0.5-0.5,0.8-1.1,0.8-1.8s-0.3-1.3-0.8-1.8c-0.5-0.5-1-0.8-1.7-1c-0.4-0.2-0.6-0.3-0.8-0.5c-0.2-0.2-0.3-0.5-0.3-0.7
	c0-0.3,0.1-0.5,0.3-0.7c0.2-0.2,0.4-0.3,0.7-0.3c0.2,0,0.5,0.1,0.7,0.3c0.1,0.1,0.2,0.3,0.3,0.6l1-0.4c-0.1-0.4-0.3-0.7-0.5-0.9
	c-0.4-0.4-0.9-0.6-1.4-0.6c-0.6,0-1,0.2-1.4,0.6c-0.4,0.4-0.6,0.8-0.6,1.4c0,0.5,0.2,1,0.6,1.3c0.4,0.4,0.9,0.7,1.5,0.9
	C36.5,133,36.9,133.2,37.2,133.5 M25.2,128.7v8.5h4.6v-0.9h-3.6v-2.9h3.6v-0.9h-3.6v-2.9h3.6v-0.9H25.2z M18.6,135.3l-2.3-6.6h-1.1
	l3.1,8.5h0.7l3.1-8.5h-1.1L18.6,135.3z M5,128.7v8.5h1.1v-6.6l4.7,6.6H12v-8.5h-1.1v6.8L6,128.7H5z M0,137.2h1.1v-8.5H0V137.2z"/>
</svg>
